<?xml version="1.0" encoding="utf-8"?>
<!-- Generator: Adobe Illustrator 28.0.0, SVG Export Plug-In . SVG Version: 6.00 Build 0)  -->
<svg version="1.1" id="Слой_1" xmlns="http://www.w3.org/2000/svg" xmlns:xlink="http://www.w3.org/1999/xlink" x="0px" y="0px"
	 viewBox="0 0 2609.7 2252.8" style="enable-background:new 0 0 2609.7 2252.8;" xml:space="preserve">
<style type="text/css">
	.st0{fill:#FFFFFF;}
	.st1{fill:none;stroke:#FFFFFF;stroke-width:8;stroke-miterlimit:10.0003;}
	.st2{enable-background:new    ;}
	.st3{fill:#848484;}
</style>
<path class="st0" d="M1641.8,59c78.2,0,154.3,7.4,226.2,22c72.2,14.7,140.4,36.7,202.9,65.5c63.4,29.2,121.3,65.5,172.1,108
	c52.1,43.5,97.3,94,134.4,150c34.8,52.5,62.4,109.8,81.9,170.3c19.1,59.1,30.8,121.9,34.9,186.8c4,63.9,0.5,130.5-10.4,197.9
	c-10.8,67-28.9,135.3-53.9,203.1c-25,68-57.2,135.9-95.5,202c-38.8,66.8-84.2,132.3-135.1,194.5c-51.9,63.5-109.9,124.3-172.5,180.8
	c-64.3,58-134.1,112.1-207.6,160.7c-136.5,90.4-281.7,160.2-431.6,207.3c-72.1,22.7-145.1,40-217.1,51.4
	c-71.1,11.3-142.1,17.1-210.8,17.1c-78.2,0-154.3-7.4-226.2-22c-72.2-14.7-140.4-36.7-202.9-65.5c-63.4-29.2-121.3-65.5-172.2-108
	c-52.1-43.5-97.3-94-134.4-150c-34.8-52.5-62.4-109.8-81.9-170.3c-19.1-59.1-30.8-121.9-34.9-186.8c-4-63.9-0.5-130.5,10.4-197.9
	c10.8-67,28.9-135.3,53.9-203.1c25-68,57.2-135.9,95.5-202c38.8-66.8,84.2-132.3,135.1-194.5C454,612.8,512,552,574.6,495.5
	c64.3-58,134.1-112,207.6-160.7c136.5-90.4,281.7-160.2,431.6-207.3c72.1-22.7,145.1-40,217.1-51.4C1502.1,64.7,1573.1,59,1641.8,59
	 M1641.8,29c-281.1,0-592.1,92.7-876.1,280.8c-608.4,403-862.1,1091.4-566.5,1537.6c157.6,237.8,439.6,358.8,760.7,358.8
	c281.1,0,592.1-92.7,876.1-280.8c608.4-403,862.1-1091.4,566.6-1537.6C2244.9,150,1962.9,29,1641.8,29L1641.8,29z"/>
<g>
	<circle class="st0" cx="1128.1" cy="140.2" r="46.6"/>
</g>
<g>
	<circle class="st0" cx="2040.2" cy="119.9" r="46.6"/>
</g>
<g>
	<circle class="st0" cx="2495.9" cy="623.8" r="46.6"/>
</g>
<g>
	<circle class="st0" cx="2339.6" cy="1376.5" r="46.6"/>
</g>
<g>
	
		<ellipse transform="matrix(0.7071 -0.7071 0.7071 0.7071 -773.0712 1890.572)" class="st0" cx="1895.6" cy="1878.5" rx="46.6" ry="46.6"/>
</g>
<g>
	<circle class="st0" cx="1113.4" cy="2176.2" r="46.6"/>
</g>
<g>
	
		<ellipse transform="matrix(0.9951 -9.854416e-02 9.854416e-02 0.9951 -192.6703 41.9264)" class="st0" cx="328.1" cy="1971.4" rx="46.6" ry="46.6"/>
</g>
<g>
	<circle class="st0" cx="97.8" cy="1332.8" r="46.6"/>
</g>
<g>
	<circle class="st0" cx="410.2" cy="623.8" r="46.6"/>
</g>
<g>
	<circle class="st0" cx="1968.6" cy="206.5" r="34.6"/>
</g>
<g>
	
		<ellipse transform="matrix(0.6552 -0.7555 0.7555 0.6552 438.4637 1530.0918)" class="st0" cx="1895.5" cy="284.7" rx="24.4" ry="24.4"/>
</g>
<g>
	<circle class="st0" cx="1840" cy="347.3" r="14.1"/>
</g>
<ellipse transform="matrix(0.7835 -0.6214 0.6214 0.7835 -422.3586 1028.7302)" class="st1" cx="1265.1" cy="1120.5" rx="880" ry="694.5"/>
<g class="st2">
	<path class="st3" d="M1393.1,830.4h-4.9l-3.5-28.9l-12,24.7h-4.3l-12.2-24.7l-3.5,28.9h-4.9l4.6-37.9h4.5l13.5,28.1l13.5-28.1h4.5
		L1393.1,830.4z"/>
	<path class="st3" d="M1419.2,804.7h4.8v25.7h-4.8v-10.7h-14v10.7h-4.8v-25.7h4.8v10.7h14V804.7z"/>
	<path class="st3" d="M1456.5,819.6h-20.9c0.7,4.6,4,6.9,8.4,6.9c3.1,0,6-1.4,7.5-4l4.1,1.7c-2.2,4.5-6.8,6.9-11.8,6.9
		c-7.3,0-13.2-5.4-13.2-13.6c0-8.1,5.9-13.4,13.2-13.4c7.3,0,12.8,5.3,12.8,13.4C1456.6,818.2,1456.5,818.9,1456.5,819.6z
		 M1451.8,815.5c-0.6-4.4-3.7-6.9-8-6.9s-7.4,2.3-8.2,6.9H1451.8z"/>
	<path class="st3" d="M1495.9,804.7h4.8v25.7h-4.8v-10.7h-14v10.7h-4.8v-25.7h4.8v10.7h14V804.7z"/>
	<path class="st3" d="M1526.6,804.7h5.2l-15.9,38.2h-5.1l5.4-13.3l-10.3-24.9h5.2l7.8,18.9L1526.6,804.7z"/>
	<path class="st3" d="M1567.2,830.4l-8.9-10.7h-3v10.7h-4.8v-10.7h-3l-8.9,10.7h-5.9l10.7-12.8l-9.1-12.9h5.3l7.6,10.7h3.3v-10.7
		h4.8v10.7h3.3l7.5-10.7h5.3l-9.2,12.9l10.7,12.8H1567.2z"/>
	<path class="st3" d="M1596.5,804.7h4.8v25.7h-4.8v-10.7h-14v10.7h-4.8v-25.7h4.8v10.7h14V804.7z"/>
	<path class="st3" d="M1629.9,804.7h4.8v25.7h-4.8v-4.6c-1.7,3.1-5.3,5.2-9.4,5.2c-6.7,0-12.6-5.7-12.6-13.5
		c0-7.6,5.6-13.5,12.8-13.5c3.8,0,7.5,1.7,9.2,4.7V804.7z M1629.9,817.5c0-5.3-4.5-9-8.7-9c-4.7,0-8.4,4.1-8.4,9s3.7,9,8.5,9
		C1625.8,826.5,1629.9,822.7,1629.9,817.5z"/>
	<path class="st3" d="M1674.3,831v11.9h-4.6V831c-9.5-0.7-14.6-5.9-14.6-13.3c0.1-7.4,5.2-12.8,14.6-13.5v-13.4h4.6v13.4
		c9.5,0.7,14.6,6,14.6,13.5C1689,825.1,1683.8,830.3,1674.3,831z M1669.8,826.4v-17.8c-6.4,0.7-9.8,4-9.8,9
		C1660,822.6,1663.4,825.8,1669.8,826.4z M1674.3,826.4c6.4-0.6,9.8-3.8,9.8-8.8s-3.4-8.4-9.8-9V826.4z"/>
	<path class="st3" d="M1693.8,817.5c0-8.1,6.1-13.5,13.4-13.5s13.5,5.3,13.5,13.5s-6.2,13.5-13.5,13.5
		C1699.9,831.1,1693.8,825.7,1693.8,817.5z M1715.9,817.5c0-5.3-4-9-8.7-9s-8.6,3.7-8.6,9s3.9,9,8.6,9S1715.9,822.9,1715.9,817.5z"
		/>
	<path class="st3" d="M1745.3,804.7v4.5h-8.5v21.2h-4.8v-21.2h-8.5v-4.5H1745.3z"/>
	<path class="st3" d="M1748.2,817.5c0-8.1,6.1-13.5,13.4-13.5s13.5,5.3,13.5,13.5s-6.2,13.5-13.5,13.5S1748.2,825.7,1748.2,817.5z
		 M1770.3,817.5c0-5.3-4-9-8.7-9s-8.6,3.7-8.6,9s3.9,9,8.6,9S1770.3,822.9,1770.3,817.5z"/>
	<path class="st3" d="M1798.5,804.7v4.5h-11.9v21.2h-4.8v-25.7H1798.5z"/>
	<path class="st3" d="M1830.6,817.6c0,8.1-5.8,13.5-12.8,13.5c-3.8,0-7.5-1.7-9.2-4.7v16.5h-4.8v-38.2h4.8v4
		c1.7-2.9,5.4-4.7,9.1-4.7C1824.8,804.1,1830.6,809.5,1830.6,817.6z M1825.8,817.6c0-5.1-3.7-9.1-8.5-9.1c-4.6,0-8.7,3.6-8.7,9.1
		c0,5.6,4.5,8.9,8.7,8.9C1822.1,826.5,1825.8,822.8,1825.8,817.6z"/>
	<path class="st3" d="M1857.5,804.7h4.8v25.7h-4.8v-4.6c-1.7,3.1-5.3,5.2-9.4,5.2c-6.7,0-12.6-5.7-12.6-13.5
		c0-7.6,5.6-13.5,12.8-13.5c3.8,0,7.5,1.7,9.2,4.7V804.7z M1857.5,817.5c0-5.3-4.5-9-8.7-9c-4.7,0-8.4,4.1-8.4,9s3.7,9,8.5,9
		C1853.4,826.5,1857.5,822.7,1857.5,817.5z"/>
	<path class="st3" d="M1888.1,831v11.9h-4.6V831c-9.5-0.7-14.6-5.9-14.6-13.3c0.1-7.4,5.2-12.8,14.6-13.5v-13.4h4.6v13.4
		c9.5,0.7,14.6,6,14.6,13.5C1902.7,825.1,1897.5,830.3,1888.1,831z M1883.5,826.4v-17.8c-6.4,0.7-9.8,4-9.8,9
		C1873.7,822.6,1877.1,825.8,1883.5,826.4z M1888.1,826.4c6.4-0.6,9.8-3.8,9.8-8.8s-3.4-8.4-9.8-9V826.4z"/>
	<path class="st3" d="M1928.9,804.7h4.3v25.7h-4.8v-18.6l-15.1,18.6h-4.1v-25.7h4.8v18.5L1928.9,804.7z"/>
	<path class="st3" d="M1962.9,804.7v25.7h-4.8v-9.3h-5.9l-6.7,9.3h-5.7l7.2-9.5c-4.8-0.8-6.9-4.2-6.9-8c0-4.1,2.6-8.2,8.7-8.2
		H1962.9z M1958.1,816.9v-7.7h-8.9c-2.8,0-4.3,1.6-4.3,3.8c0,2.2,1.5,3.9,4.8,3.9L1958.1,816.9L1958.1,816.9z"/>
</g>
<g class="st2">
	<path class="st3" d="M1454.4,891.9h2.3v12h-4.8v-7.5h-18v7.5h-4.8v-11.2h1.3c2.9,0,3.9-2.5,4.8-8.5l2-13.5h17.2V891.9z
		 M1441.5,875.2l-1.5,10c-0.4,2.7-0.8,5.2-2.1,6.7h11.8v-16.7H1441.5z"/>
	<path class="st3" d="M1461.5,883.5c0-8.1,6.1-13.5,13.4-13.5s13.5,5.3,13.5,13.5s-6.2,13.5-13.5,13.5S1461.5,891.7,1461.5,883.5z
		 M1483.6,883.5c0-5.3-4-9-8.7-9s-8.6,3.7-8.6,9s3.9,9,8.6,9S1483.6,888.9,1483.6,883.5z"/>
	<path class="st3" d="M1518.4,889.1c0,3.5-2.6,7.3-8.4,7.3h-15v-25.7h14.1c4.7,0,7.8,2.8,7.8,6.6c0,1.9-0.5,4.5-3.1,5.4
		C1517,883.4,1518.4,886.3,1518.4,889.1z M1508.9,875.2h-9.1v5.9h9.2c2,0,3.1-1,3.1-2.9C1512.1,876.4,1511,875.2,1508.9,875.2z
		 M1509.5,891.9c2.8,0,4.1-1.5,4.1-3.3c0-1.9-1.3-3.5-4.1-3.5h-9.7v6.8H1509.5z"/>
	<path class="st3" d="M1523.3,883.5c0-8.1,6.1-13.5,13.4-13.5s13.5,5.3,13.5,13.5s-6.2,13.5-13.5,13.5
		C1529.4,897.1,1523.3,891.7,1523.3,883.5z M1545.4,883.5c0-5.3-4-9-8.7-9s-8.6,3.7-8.6,9s3.9,9,8.6,9
		C1541.5,892.5,1545.4,888.9,1545.4,883.5z"/>
	<path class="st3" d="M1561,870.7h16.8v25.7h-4.8v-21.2h-7.5l-1.4,11c-0.9,6.7-3.4,10.2-8.3,10.2h-2.6v-4.2h1.5c2.8,0,4-1.3,4.6-6
		L1561,870.7z"/>
	<path class="st3" d="M1599.8,880c6.3,0,8.9,3.8,8.9,8.1c0,4.1-2.5,8.3-8.6,8.3h-14v-25.7h4.8v9.3L1599.8,880L1599.8,880z
		 M1599.3,891.9c3.1,0,4.5-1.6,4.5-3.7s-1.4-3.6-4.5-3.6h-8.5v7.4h8.5V891.9z"/>
	<path class="st3" d="M1633.4,870.7h4.8v25.7h-4.8v-10.7h-14v10.7h-4.8v-25.7h4.8v10.7h14V870.7z"/>
	<path class="st3" d="M1644.8,883.5c0-8.1,6.1-13.5,13.4-13.5s13.5,5.3,13.5,13.5s-6.2,13.5-13.5,13.5S1644.8,891.7,1644.8,883.5z
		 M1666.9,883.5c0-5.3-4-9-8.7-9s-8.6,3.7-8.6,9s3.9,9,8.6,9S1666.9,888.9,1666.9,883.5z"/>
	<path class="st3" d="M1695,870.7v4.5h-11.9v21.2h-4.8v-25.7H1695z"/>
	<path class="st3" d="M1697.9,883.5c0-8.1,6.1-13.5,13.4-13.5s13.5,5.3,13.5,13.5s-6.2,13.5-13.5,13.5
		C1704,897.1,1697.9,891.7,1697.9,883.5z M1720,883.5c0-5.3-4-9-8.7-9s-8.6,3.7-8.6,9s3.9,9,8.6,9S1720,888.9,1720,883.5z"/>
	<path class="st3" d="M1763.1,896.4l-8.5-10.7h-4.5v10.7h-4.8v-25.7h4.8v10.7h4.8l7.1-10.7h5.3l-8.6,12.9l10.1,12.8L1763.1,896.4
		L1763.1,896.4z"/>
	<path class="st3" d="M1778.6,870.7h16.8v25.7h-4.8v-21.2h-7.5l-1.4,11c-0.9,6.7-3.4,10.2-8.3,10.2h-2.6v-4.2h1.5c2.7,0,4-1.3,4.6-6
		L1778.6,870.7z"/>
	<path class="st3" d="M1823.4,870.7h4.3v25.7h-4.8v-18.6l-15.1,18.6h-4.1v-25.7h4.8v18.5L1823.4,870.7z"/>
	<path class="st3" d="M1860.2,885.6h-20.9c0.7,4.6,4,6.9,8.4,6.9c3.1,0,6-1.4,7.5-4l4.1,1.7c-2.2,4.5-6.8,6.9-11.8,6.9
		c-7.3,0-13.2-5.4-13.2-13.6c0-8.1,5.9-13.4,13.2-13.4s12.8,5.3,12.8,13.4C1860.3,884.2,1860.2,884.9,1860.2,885.6z M1855.5,881.5
		c-0.6-4.4-3.7-6.9-8-6.9s-7.4,2.3-8.2,6.9H1855.5z"/>
	<path class="st3" d="M1885.6,870.7h4.8v25.7h-4.8v-10.7h-14v10.7h-4.8v-25.7h4.8v10.7h14V870.7z"/>
	<path class="st3" d="M1917.6,870.7v4.5h-8.5v21.2h-4.8v-21.2h-8.5v-4.5H1917.6z"/>
	<path class="st3" d="M1942.5,870.7h4.8v25.7h-4.8v-4.6c-1.7,3.1-5.3,5.2-9.4,5.2c-6.7,0-12.6-5.7-12.6-13.5
		c0-7.6,5.6-13.5,12.8-13.5c3.8,0,7.5,1.7,9.2,4.7V870.7z M1942.5,883.5c0-5.3-4.5-9-8.7-9c-4.7,0-8.4,4.1-8.4,9s3.7,9,8.5,9
		C1938.3,892.5,1942.5,888.7,1942.5,883.5z"/>
	<path class="st3" d="M1955.1,893.8c0-2,1.6-3.4,3.5-3.4s3.6,1.4,3.6,3.4c0,1.9-1.7,3.3-3.6,3.3S1955.1,895.7,1955.1,893.8z
		 M1956.8,885.4l-0.5-26.9h4.8l-0.5,26.9H1956.8z"/>
</g>
<g class="st2">
	<path class="st3" d="M1077.9,1028.4h-4.9l-3.5-28.9l-12,24.7h-4.3l-12.2-24.7l-3.5,28.9h-4.9l4.6-37.9h4.5l13.5,28.1l13.5-28.1h4.5
		L1077.9,1028.4z"/>
	<path class="st3" d="M1083.1,1015.5c0-8.1,6.1-13.5,13.4-13.5s13.5,5.3,13.5,13.5s-6.2,13.5-13.5,13.5
		C1089.2,1029.1,1083.1,1023.7,1083.1,1015.5z M1105.2,1015.5c0-5.3-4-9-8.7-9s-8.6,3.7-8.6,9s3.9,9,8.6,9
		S1105.2,1020.9,1105.2,1015.5z"/>
	<path class="st3" d="M1136.3,1002.7h4.3v25.7h-4.8v-18.6l-15.1,18.6h-4.1v-25.7h4.8v18.5L1136.3,1002.7z M1119.7,991h4
		c0,2,1.2,3.4,3.1,3.4s3.1-1.4,3.1-3.4h4.1c0,4.2-2.9,7-7.1,7S1119.7,995.2,1119.7,991z"/>
	<path class="st3" d="M1180.6,1028.4l-8.5-10.7h-4.5v10.7h-4.8v-25.7h4.8v10.7h4.8l7.1-10.7h5.3l-8.6,12.9l10.1,12.8L1180.6,1028.4
		L1180.6,1028.4z"/>
	<path class="st3" d="M1208.7,1002.7h5.2l-15.9,38.2h-5.1l5.4-13.3l-10.3-24.9h5.2l7.8,18.9L1208.7,1002.7z"/>
	<path class="st3" d="M1245.6,1015.6c0,8.1-5.8,13.5-12.8,13.5c-3.8,0-7.5-1.7-9.2-4.7v16.5h-4.8v-38.2h4.8v4
		c1.7-2.9,5.4-4.7,9.1-4.7C1239.7,1002.1,1245.6,1007.5,1245.6,1015.6z M1240.7,1015.6c0-5.1-3.7-9.1-8.5-9.1
		c-4.6,0-8.7,3.6-8.7,9.1c0,5.6,4.5,8.9,8.7,8.9C1237,1024.5,1240.7,1020.8,1240.7,1015.6z"/>
	<path class="st3" d="M1250.4,1015.5c0-8.1,6.4-13.5,13.8-13.5c4,0,7.5,1.6,9.8,4.1l-3,3.1c-1.6-1.6-3.9-2.7-6.6-2.7
		c-5.1,0-9.1,3.7-9.1,9s4.1,9,9.1,9c2.7,0,5-1,6.6-2.7l3,3.1c-2.3,2.5-5.8,4.1-9.8,4.1C1256.8,1029.1,1250.4,1023.7,1250.4,1015.5z"
		/>
	<path class="st3" d="M1294,1002.7h23.6v25.7h-4.8v-21.2h-14v21.2h-4.8L1294,1002.7L1294,1002.7z"/>
	<path class="st3" d="M1352.7,1015.6c0,8.1-5.8,13.5-12.8,13.5c-3.8,0-7.5-1.7-9.2-4.7v16.5h-4.8v-38.2h4.8v4
		c1.7-2.9,5.4-4.7,9.1-4.7C1346.9,1002.1,1352.7,1007.5,1352.7,1015.6z M1347.9,1015.6c0-5.1-3.7-9.1-8.5-9.1
		c-4.6,0-8.7,3.6-8.7,9.1c0,5.6,4.5,8.9,8.7,8.9C1344.1,1024.5,1347.9,1020.8,1347.9,1015.6z"/>
	<path class="st3" d="M1383.5,1017.6h-20.9c0.7,4.6,4,6.9,8.4,6.9c3.1,0,6-1.4,7.5-4l4.1,1.7c-2.2,4.5-6.8,6.9-11.8,6.9
		c-7.3,0-13.2-5.4-13.2-13.6c0-8.1,5.9-13.4,13.2-13.4c7.3,0,12.8,5.3,12.8,13.4C1383.6,1016.2,1383.6,1016.9,1383.5,1017.6z
		 M1378.8,1013.5c-0.6-4.4-3.7-6.9-8-6.9s-7.4,2.3-8.2,6.9H1378.8z"/>
	<path class="st3" d="M1411.8,1023.9h2.3v12h-4.8v-7.5h-18v7.5h-4.8v-11.2h1.3c2.9,0,3.9-2.5,4.8-8.5l2-13.5h17.2V1023.9z
		 M1399,1007.2l-1.5,10c-0.4,2.7-0.8,5.2-2.1,6.7h11.8v-16.7H1399z"/>
	<path class="st3" d="M1418.9,1015.5c0-8.1,6.4-13.5,13.8-13.5c4,0,7.5,1.6,9.8,4.1l-3,3.1c-1.6-1.6-3.9-2.7-6.6-2.7
		c-5.1,0-9.1,3.7-9.1,9s4.1,9,9.1,9c2.7,0,5-1,6.6-2.7l3,3.1c-2.3,2.5-5.8,4.1-9.8,4.1C1425.3,1029.1,1418.9,1023.7,1418.9,1015.5z"
		/>
	<path class="st3" d="M1467.3,1002.7v4.5h-8.5v21.2h-4.8v-21.2h-8.5v-4.5H1467.3z"/>
	<path class="st3" d="M1492.2,1002.7h4.8v25.7h-4.8v-4.6c-1.7,3.1-5.3,5.2-9.4,5.2c-6.7,0-12.6-5.7-12.6-13.5
		c0-7.6,5.6-13.5,12.8-13.5c3.8,0,7.5,1.7,9.2,4.7V1002.7z M1492.2,1015.5c0-5.3-4.5-9-8.7-9c-4.7,0-8.4,4.1-8.4,9s3.7,9,8.5,9
		C1488.1,1024.5,1492.2,1020.7,1492.2,1015.5z"/>
	<path class="st3" d="M1528.6,1021.1c0,3.5-2.6,7.3-8.4,7.3h-15v-25.7h14.1c4.7,0,7.8,2.8,7.8,6.6c0,1.9-0.5,4.5-3.1,5.4
		C1527.3,1015.4,1528.6,1018.3,1528.6,1021.1z M1519.2,1007.2h-9.1v5.9h9.2c2,0,3.1-1,3.1-2.9
		C1522.4,1008.4,1521.3,1007.2,1519.2,1007.2z M1519.8,1023.9c2.8,0,4.1-1.5,4.1-3.3c0-1.9-1.3-3.5-4.1-3.5h-9.7v6.8H1519.8z"/>
	<path class="st3" d="M1555,1002.7h4.3v25.7h-4.8v-18.6l-15.1,18.6h-4.1v-25.7h4.8v18.5L1555,1002.7z"/>
	<path class="st3" d="M1586.5,1002.7v4.5h-8.5v21.2h-4.8v-21.2h-8.5v-4.5H1586.5z"/>
	<path class="st3" d="M1621.9,1002.7v4.5h-8.5v21.2h-4.8v-21.2h-8.5v-4.5H1621.9z"/>
	<path class="st3" d="M1650.6,1017.6h-20.9c0.7,4.6,4,6.9,8.4,6.9c3.1,0,6-1.4,7.5-4l4.1,1.7c-2.2,4.5-6.8,6.9-11.8,6.9
		c-7.3,0-13.2-5.4-13.2-13.6c0-8.1,5.9-13.4,13.2-13.4c7.3,0,12.8,5.3,12.8,13.4C1650.7,1016.2,1650.7,1016.9,1650.6,1017.6z
		 M1646,1013.5c-0.6-4.4-3.7-6.9-8-6.9s-7.4,2.3-8.2,6.9H1646z"/>
	<path class="st3" d="M1683.1,1015.5c0,8.1-6.1,13.6-13.4,13.6c-7.4,0-13.4-4.8-13.4-16.8c0-9.6,3-18.4,17.2-20.5
		c2.1-0.3,2.8-0.8,3.6-2l3.9,2.1c-0.8,2.1-3.5,3.6-6.5,4.2c-9.8,1.7-12.3,5.3-13.2,10c1.8-2.3,5.3-4.1,8.9-4.1
		C1677,1002.1,1683.1,1007.3,1683.1,1015.5z M1678.3,1015.5c0-5.3-4-8.9-8.6-8.9c-4.7,0-8.6,3.6-8.6,8.7c0,5.3,3.8,9.2,8.6,9.2
		C1674.4,1024.5,1678.3,1020.8,1678.3,1015.5z"/>
	<path class="st3" d="M1713.9,1017.6H1693c0.7,4.6,4,6.9,8.4,6.9c3.1,0,6-1.4,7.5-4l4.1,1.7c-2.2,4.5-6.8,6.9-11.8,6.9
		c-7.3,0-13.2-5.4-13.2-13.6c0-8.1,5.9-13.4,13.2-13.4c7.3,0,12.8,5.3,12.8,13.4C1714,1016.2,1714,1016.9,1713.9,1017.6z
		 M1709.3,1013.5c-0.6-4.4-3.7-6.9-8-6.9s-7.4,2.3-8.2,6.9H1709.3z"/>
	<path class="st3" d="M1753,1021.4c0,5.2-5,7.6-11.6,7.6c-3.4,0-7.1-0.8-9.3-1.9l1.4-4.4c2.4,1.1,5.6,1.8,7.9,1.8
		c3.4,0,6.9-1.3,6.9-3.9c0-2.3-2.4-3.5-6.2-3.5h-5.1v-3.6h4.2c4,0,5.5-1.6,5.5-3.6c0-2.5-2.7-3.4-5.4-3.4c-2.3,0-5.1,0.6-7.2,1.5
		l-1.5-4.1c2.5-1.2,6.5-2,9.3-2c6.2,0,9.5,3.4,9.5,7.5c0,2.1-1.3,4.3-3.2,5.5C1750.9,1015.8,1753,1018.3,1753,1021.4z"/>
	<path class="st3" d="M1778.3,1002.7h4.8v25.7h-4.8v-10.7h-14v10.7h-4.8v-25.7h4.8v10.7h14V1002.7z"/>
	<path class="st3" d="M1811.7,1002.7h4.8v25.7h-4.8v-4.6c-1.7,3.1-5.3,5.2-9.4,5.2c-6.7,0-12.6-5.7-12.6-13.5
		c0-7.6,5.6-13.5,12.8-13.5c3.8,0,7.5,1.7,9.2,4.7V1002.7z M1811.7,1015.5c0-5.3-4.5-9-8.7-9c-4.7,0-8.4,4.1-8.4,9s3.7,9,8.5,9
		C1807.6,1024.5,1811.7,1020.7,1811.7,1015.5z"/>
	<path class="st3" d="M1843.7,1002.7h4.8v25.7h-4.8v-10.7h-14v10.7h-4.8v-25.7h4.8v10.7h14V1002.7z"/>
	<path class="st3" d="M1876.5,1002.7h4.3v25.7h-4.8v-18.6l-15.1,18.6h-4.1v-25.7h4.8v18.5L1876.5,1002.7z"/>
	<path class="st3" d="M1910.5,1002.7v25.7h-4.8v-9.3h-5.9l-6.7,9.3h-5.7l7.1-9.5c-4.8-0.8-6.9-4.2-6.9-8c0-4.1,2.6-8.2,8.7-8.2
		H1910.5z M1905.7,1014.9v-7.7h-8.9c-2.8,0-4.3,1.6-4.3,3.8c0,2.2,1.5,3.9,4.8,3.9L1905.7,1014.9L1905.7,1014.9z"/>
	<path class="st3" d="M1952.4,1002.7h4.3v25.7h-4.8v-18.6l-15.1,18.6h-4.1v-25.7h4.8v18.5L1952.4,1002.7z"/>
</g>
<g class="st2">
	<path class="st3" d="M667.6,1068.7h4.3v25.7h-4.8v-18.6l-15.1,18.6h-4.1v-25.7h4.8v18.5L667.6,1068.7z"/>
	<path class="st3" d="M699.1,1068.7h4.8v25.7h-4.8v-10.7h-14v10.7h-4.8v-25.7h4.8v10.7h14V1068.7z"/>
	<path class="st3" d="M710.4,1081.5c0-8.1,6.4-13.5,13.8-13.5c4,0,7.5,1.6,9.8,4.1l-3,3.1c-1.6-1.6-3.9-2.7-6.6-2.7
		c-5.1,0-9.1,3.7-9.1,9s4.1,9,9.1,9c2.7,0,5-1,6.6-2.7l3,3.1c-2.3,2.5-5.8,4.1-9.8,4.1C716.9,1095.1,710.4,1089.7,710.4,1081.5z"/>
	<path class="st3" d="M758.9,1068.7v4.5h-8.5v21.2h-4.8v-21.2h-8.5v-4.5H758.9z"/>
	<path class="st3" d="M791.1,1081.6c0,8.1-5.8,13.5-12.8,13.5c-3.8,0-7.5-1.7-9.2-4.7v16.5h-4.8v-38.2h4.8v4
		c1.7-2.9,5.4-4.7,9.1-4.7C785.2,1068.1,791.1,1073.5,791.1,1081.6z M786.2,1081.6c0-5.1-3.7-9.1-8.5-9.1c-4.6,0-8.7,3.6-8.7,9.1
		c0,5.6,4.5,8.9,8.7,8.9C782.5,1090.5,786.2,1086.8,786.2,1081.6z"/>
	<path class="st3" d="M814.6,1068.7h5.2l-15.9,38.2h-5.1l5.4-13.3l-10.3-24.9h5.2l7.8,18.9L814.6,1068.7z"/>
	<path class="st3" d="M856,1094.4h-4.6l-2.4-17.2l-8,14.2h-3.6l-8-14.2l-2.4,17.1h-4.5l3.5-25.7h3.5l9.8,17.7l9.7-17.7h3.5
		L856,1094.4z"/>
</g>
<g class="st2">
	<path class="st3" d="M888.2,1083.6h-20.9c0.7,4.6,4,6.9,8.4,6.9c3.1,0,6-1.4,7.5-4l4.1,1.7c-2.2,4.5-6.8,6.9-11.8,6.9
		c-7.3,0-13.2-5.4-13.2-13.6c0-8.1,5.9-13.4,13.2-13.4c7.3,0,12.8,5.3,12.8,13.4C888.3,1082.2,888.2,1082.9,888.2,1083.6z
		 M883.5,1079.5c-0.6-4.4-3.7-6.9-8-6.9s-7.4,2.3-8.2,6.9H883.5z"/>
</g>
<g class="st2">
	<path class="st3" d="M912.6,1068.7h4.8v25.7h-4.8v-10.7h-14v10.7h-4.8v-25.7h4.8v10.7h14V1068.7z"/>
</g>
<g class="st2">
	<path class="st3" d="M944.6,1068.7v4.5h-8.5v21.2h-4.8v-21.2h-8.5v-4.5H944.6z"/>
</g>
<g class="st2">
	<path class="st3" d="M975.5,1078c6.3,0,8.9,3.8,8.9,8.1c0,4.1-2.5,8.3-8.6,8.3h-12.9v-25.7h4.8v9.3L975.5,1078L975.5,1078z
		 M975,1089.9c3.1,0,4.5-1.6,4.5-3.7s-1.4-3.6-4.5-3.6h-7.4v7.4h7.4V1089.9z M987.2,1068.7h4.8v25.7h-4.8V1068.7z"/>
	<path class="st3" d="M1035.7,1089.9h2.3v12h-4.8v-7.5h-18v7.5h-4.8v-11.2h1.3c2.9,0,3.9-2.5,4.8-8.5l2-13.5h17.2V1089.9z
		 M1022.8,1073.2l-1.5,10c-0.4,2.7-0.8,5.2-2.1,6.7h11.8v-16.7H1022.8z"/>
	<path class="st3" d="M1049.8,1068.7h16.8v25.7h-4.8v-21.2h-7.5l-1.4,11c-0.9,6.7-3.4,10.2-8.3,10.2h-2.6v-4.2h1.5
		c2.8,0,4-1.3,4.6-6L1049.8,1068.7z"/>
	<path class="st3" d="M1096.2,1068.7v25.7h-4.8v-9.3h-5.9l-6.7,9.3h-5.7l7.1-9.5c-4.8-0.8-6.9-4.2-6.9-8c0-4.1,2.6-8.2,8.7-8.2
		H1096.2z M1091.4,1080.9v-7.7h-8.9c-2.8,0-4.3,1.6-4.3,3.8c0,2.2,1.5,3.9,4.8,3.9L1091.4,1080.9L1091.4,1080.9z"/>
	<path class="st3" d="M1135.2,1068.7v4.5h-11.9v21.2h-4.8v-25.7H1135.2z"/>
	<path class="st3" d="M1163.9,1083.6H1143c0.7,4.6,4,6.9,8.4,6.9c3.1,0,6-1.4,7.5-4l4.1,1.7c-2.2,4.5-6.8,6.9-11.8,6.9
		c-7.3,0-13.2-5.4-13.2-13.6c0-8.1,5.9-13.4,13.2-13.4s12.8,5.3,12.8,13.4C1164,1082.2,1164,1082.9,1163.9,1083.6z M1159.2,1079.5
		c-0.6-4.4-3.7-6.9-8-6.9s-7.4,2.3-8.2,6.9H1159.2z"/>
	<path class="st3" d="M1189.4,1068.7h4.8v25.7h-4.8v-10.7h-14v10.7h-4.8v-25.7h4.8v10.7h14V1068.7z"/>
	<path class="st3" d="M1226.7,1083.6h-20.9c0.7,4.6,4,6.9,8.4,6.9c3.1,0,6-1.4,7.5-4l4.1,1.7c-2.2,4.5-6.8,6.9-11.8,6.9
		c-7.3,0-13.2-5.4-13.2-13.6c0-8.1,5.9-13.4,13.2-13.4s12.8,5.3,12.8,13.4C1226.8,1082.2,1226.7,1082.9,1226.7,1083.6z M1222,1079.5
		c-0.6-4.4-3.7-6.9-8-6.9s-7.4,2.3-8.2,6.9H1222z"/>
	<path class="st3" d="M1260.1,1081.6c0,8.1-5.8,13.5-12.8,13.5c-3.8,0-7.5-1.7-9.2-4.7v16.5h-4.8v-38.2h4.8v4
		c1.7-2.9,5.4-4.7,9.1-4.7C1254.3,1068.1,1260.1,1073.5,1260.1,1081.6z M1255.3,1081.6c0-5.1-3.7-9.1-8.5-9.1
		c-4.6,0-8.7,3.6-8.7,9.1c0,5.6,4.5,8.9,8.7,8.9C1251.5,1090.5,1255.3,1086.8,1255.3,1081.6z"/>
	<path class="st3" d="M1287,1068.7h4.8v25.7h-4.8v-4.6c-1.7,3.1-5.3,5.2-9.4,5.2c-6.7,0-12.6-5.7-12.6-13.5
		c0-7.6,5.6-13.5,12.8-13.5c3.8,0,7.5,1.7,9.2,4.7V1068.7z M1287,1081.5c0-5.3-4.5-9-8.7-9c-4.7,0-8.4,4.1-8.4,9s3.7,9,8.5,9
		C1282.9,1090.5,1287,1086.7,1287,1081.5z"/>
	<path class="st3" d="M1322.8,1089.9h3v12h-4.7v-7.5h-20.9v-25.7h4.8v21.2h13v-21.2h4.8L1322.8,1089.9L1322.8,1089.9z"/>
	<path class="st3" d="M1352.1,1068.7h4.3v25.7h-4.8v-18.6l-15.1,18.6h-4.1v-25.7h4.8v18.5L1352.1,1068.7z"/>
	<path class="st3" d="M1384.4,1068.7h4.3v25.7h-4.8v-18.6l-15.1,18.6h-4.1v-25.7h4.8v18.5L1384.4,1068.7z"/>
	<path class="st3" d="M1416,1068.7h16.8v25.7h-4.8v-21.2h-7.5l-1.4,11c-0.9,6.7-3.4,10.2-8.3,10.2h-2.6v-4.2h1.5c2.8,0,4-1.3,4.6-6
		L1416,1068.7z"/>
	<path class="st3" d="M1478,1081.5c0,8.1-6.2,13.6-13.5,13.6c-6.6,0-12.3-4.5-13.3-11.3h-5.4v10.7h-4.8v-25.7h4.8v10.7h5.3
		c0.9-7,6.6-11.4,13.3-11.4C1471.8,1068.1,1478,1073.3,1478,1081.5z M1473.2,1081.5c0-5.3-4-8.9-8.7-8.9s-8.6,3.6-8.6,8.9
		s3.9,9.1,8.6,9.1C1469.2,1090.5,1473.2,1086.8,1473.2,1081.5z"/>
	<path class="st3" d="M1510.4,1081.5c0,8.1-6.1,13.6-13.4,13.6c-7.4,0-13.4-4.8-13.4-16.8c0-9.6,3-18.4,17.2-20.5
		c2.1-0.3,2.7-0.8,3.6-2l3.9,2.1c-0.8,2.1-3.5,3.6-6.5,4.2c-9.8,1.7-12.3,5.3-13.2,10c1.8-2.3,5.3-4.1,8.9-4.1
		C1504.3,1068.1,1510.4,1073.3,1510.4,1081.5z M1505.6,1081.5c0-5.3-4-8.9-8.6-8.9c-4.7,0-8.6,3.6-8.6,8.7c0,5.3,3.8,9.2,8.6,9.2
		C1501.7,1090.5,1505.6,1086.8,1505.6,1081.5z"/>
	<path class="st3" d="M1515.3,1081.5c0-8.1,6.1-13.5,13.4-13.5s13.5,5.3,13.5,13.5s-6.2,13.5-13.5,13.5S1515.3,1089.7,1515.3,1081.5
		z M1537.4,1081.5c0-5.3-4-9-8.7-9s-8.6,3.7-8.6,9s3.9,9,8.6,9C1533.5,1090.5,1537.4,1086.9,1537.4,1081.5z"/>
	<path class="st3" d="M1565.6,1068.7v4.5h-11.9v21.2h-4.8v-25.7H1565.6z"/>
	<path class="st3" d="M1568.4,1081.5c0-8.1,6.1-13.5,13.4-13.5s13.5,5.3,13.5,13.5s-6.2,13.5-13.5,13.5
		C1574.6,1095.1,1568.4,1089.7,1568.4,1081.5z M1590.6,1081.5c0-5.3-4-9-8.7-9s-8.6,3.7-8.6,9s3.9,9,8.6,9
		S1590.6,1086.9,1590.6,1081.5z"/>
	<path class="st3" d="M1635.6,1068.7h4.3v25.7h-4.8v-18.6l-15.1,18.6h-4.1v-25.7h4.8v18.5L1635.6,1068.7z"/>
	<path class="st3" d="M1666.7,1087.4c0,5.2-5,7.6-11.6,7.6c-3.4,0-7.1-0.8-9.3-1.9l1.4-4.4c2.4,1.1,5.6,1.8,7.9,1.8
		c3.4,0,6.9-1.3,6.9-3.9c0-2.3-2.4-3.5-6.2-3.5h-5.1v-3.6h4.2c4,0,5.5-1.6,5.5-3.6c0-2.5-2.7-3.4-5.4-3.4c-2.3,0-5.1,0.6-7.2,1.5
		l-1.5-4.1c2.5-1.2,6.5-2,9.3-2c6.2,0,9.5,3.4,9.5,7.5c0,2.1-1.3,4.3-3.2,5.5C1664.6,1081.8,1666.7,1084.3,1666.7,1087.4z"/>
	<path class="st3" d="M1671.5,1081.5c0-8.1,6.1-13.5,13.4-13.5s13.5,5.3,13.5,13.5s-6.2,13.5-13.5,13.5S1671.5,1089.7,1671.5,1081.5
		z M1693.6,1081.5c0-5.3-4-9-8.7-9s-8.6,3.7-8.6,9s3.9,9,8.6,9C1689.7,1090.5,1693.6,1086.9,1693.6,1081.5z"/>
	<path class="st3" d="M1730.9,1081.5c0,8.1-6.1,13.6-13.4,13.6c-7.4,0-13.4-4.8-13.4-16.8c0-9.6,3-18.4,17.2-20.5
		c2.1-0.3,2.8-0.8,3.6-2l3.9,2.1c-0.8,2.1-3.5,3.6-6.5,4.2c-9.8,1.7-12.3,5.3-13.2,10c1.8-2.3,5.3-4.1,8.9-4.1
		C1724.8,1068.1,1730.9,1073.3,1730.9,1081.5z M1726.1,1081.5c0-5.3-4-8.9-8.6-8.9c-4.7,0-8.6,3.6-8.6,8.7c0,5.3,3.8,9.2,8.6,9.2
		C1722.2,1090.5,1726.1,1086.8,1726.1,1081.5z"/>
	<path class="st3" d="M1764.3,1081.6c0,8.1-5.8,13.5-12.8,13.5c-3.8,0-7.5-1.7-9.2-4.7v16.5h-4.8v-38.2h4.8v4
		c1.7-2.9,5.4-4.7,9.1-4.7C1758.5,1068.1,1764.3,1073.5,1764.3,1081.6z M1759.5,1081.6c0-5.1-3.7-9.1-8.5-9.1
		c-4.6,0-8.7,3.6-8.7,9.1c0,5.6,4.5,8.9,8.7,8.9C1755.8,1090.5,1759.5,1086.8,1759.5,1081.6z"/>
	<path class="st3" d="M1791.2,1068.7h4.8v25.7h-4.8v-4.6c-1.7,3.1-5.3,5.2-9.4,5.2c-6.7,0-12.6-5.7-12.6-13.5
		c0-7.6,5.6-13.5,12.8-13.5c3.8,0,7.5,1.7,9.2,4.7V1068.7z M1791.2,1081.5c0-5.3-4.5-9-8.7-9c-4.7,0-8.4,4.1-8.4,9s3.7,9,8.5,9
		C1787.1,1090.5,1791.2,1086.7,1791.2,1081.5z"/>
	<path class="st3" d="M1835,1094.4l-8.9-10.7h-3v10.7h-4.8v-10.7h-3l-8.9,10.7h-5.9l10.7-12.8l-9.1-12.9h5.3l7.6,10.7h3.3v-10.7h4.8
		v10.7h3.3l7.5-10.7h5.3l-9.2,12.9l10.7,12.8H1835z"/>
	<path class="st3" d="M1868.2,1083.6h-20.9c0.7,4.6,4,6.9,8.4,6.9c3.1,0,6-1.4,7.5-4l4.1,1.7c-2.2,4.5-6.8,6.9-11.8,6.9
		c-7.3,0-13.2-5.4-13.2-13.6c0-8.1,5.9-13.4,13.2-13.4c7.3,0,12.8,5.3,12.8,13.4C1868.4,1082.2,1868.3,1082.9,1868.2,1083.6z
		 M1863.6,1079.5c-0.6-4.4-3.7-6.9-8-6.9s-7.4,2.3-8.2,6.9H1863.6z"/>
	<path class="st3" d="M1893.7,1068.7h4.8v25.7h-4.8v-10.7h-14v10.7h-4.8v-25.7h4.8v10.7h14V1068.7z"/>
	<path class="st3" d="M1926.5,1068.7h4.3v25.7h-4.8v-18.6l-15.1,18.6h-4.1v-25.7h4.8v18.5L1926.5,1068.7z"/>
	<path class="st3" d="M1960.5,1068.7v25.7h-4.8v-9.3h-5.9l-6.7,9.3h-5.7l7.1-9.5c-4.8-0.8-6.9-4.2-6.9-8c0-4.1,2.6-8.2,8.7-8.2
		H1960.5z M1955.7,1080.9v-7.7h-8.9c-2.8,0-4.3,1.6-4.3,3.8c0,2.2,1.5,3.9,4.8,3.9L1955.7,1080.9L1955.7,1080.9z"/>
</g>
<g class="st2">
	<path class="st3" d="M949.4,1147.5c0-8.1,6.4-13.5,13.8-13.5c4,0,7.5,1.6,9.8,4.1l-3,3.1c-1.6-1.6-3.9-2.7-6.6-2.7
		c-5.1,0-9.1,3.7-9.1,9s4.1,9,9.1,9c2.7,0,5-1,6.6-2.7l3,3.1c-2.3,2.5-5.8,4.1-9.8,4.1C955.9,1161.1,949.4,1155.7,949.4,1147.5z"/>
	<path class="st3" d="M993,1134.7h23.6v25.7h-4.8v-21.2h-14v21.2H993L993,1134.7L993,1134.7z"/>
	<path class="st3" d="M1023.2,1147.5c0-8.1,6.1-13.5,13.4-13.5s13.5,5.3,13.5,13.5s-6.2,13.5-13.5,13.5S1023.2,1155.7,1023.2,1147.5
		z M1045.3,1147.5c0-5.3-4-9-8.7-9s-8.6,3.7-8.6,9s3.9,9,8.6,9S1045.3,1152.9,1045.3,1147.5z"/>
	<path class="st3" d="M1088.7,1160.4h-4.6l-2.4-17.2l-8,14.2h-3.6l-8-14.2l-2.4,17.1h-4.5l3.5-25.7h3.5l9.8,17.7l9.7-17.7h3.5
		L1088.7,1160.4z"/>
	<path class="st3" d="M1093.8,1147.5c0-8.1,6.1-13.5,13.4-13.5s13.5,5.3,13.5,13.5s-6.2,13.5-13.5,13.5S1093.8,1155.7,1093.8,1147.5
		z M1115.9,1147.5c0-5.3-4-9-8.7-9s-8.6,3.7-8.6,9s3.9,9,8.6,9S1115.9,1152.9,1115.9,1147.5z"/>
	<path class="st3" d="M1160.8,1155.9h3v12h-4.7v-7.5h-31.8v-25.7h4.8v21.2h9.6v-21.2h4.8v21.2h9.6v-21.2h4.8v21.2H1160.8z"/>
	<path class="st3" d="M1184.2,1144c6.3,0,8.9,3.8,8.9,8.1c0,4.1-2.5,8.3-8.6,8.3h-14v-25.7h4.8v9.3L1184.2,1144L1184.2,1144z
		 M1183.7,1155.9c3.1,0,4.5-1.6,4.5-3.7s-1.4-3.6-4.5-3.6h-8.5v7.4h8.5V1155.9z"/>
	<path class="st3" d="M1235.9,1147.5c0,8.1-6.2,13.6-13.5,13.6c-6.6,0-12.3-4.5-13.3-11.3h-5.4v10.7h-4.8v-25.7h4.8v10.7h5.3
		c0.9-7,6.6-11.4,13.3-11.4C1229.7,1134.1,1235.9,1139.3,1235.9,1147.5z M1231.1,1147.5c0-5.3-4-8.9-8.7-8.9s-8.6,3.6-8.6,8.9
		s3.9,9.1,8.6,9.1C1227.1,1156.5,1231.1,1152.8,1231.1,1147.5z"/>
	<path class="st3" d="M1276.1,1134.7h4.3v25.7h-4.8v-18.6l-15.1,18.6h-4.1v-25.7h4.8v18.5L1276.1,1134.7z"/>
	<path class="st3" d="M1286.9,1147.5c0-8.1,6.4-13.5,13.8-13.5c4,0,7.5,1.6,9.8,4.1l-3,3.1c-1.6-1.6-3.9-2.7-6.6-2.7
		c-5.1,0-9.1,3.7-9.1,9s4.1,9,9.1,9c2.7,0,5-1,6.6-2.7l3,3.1c-2.3,2.5-5.8,4.1-9.8,4.1C1293.3,1161.1,1286.9,1155.7,1286.9,1147.5z"
		/>
	<path class="st3" d="M1334.3,1160.4l-8.5-10.7h-4.5v10.7h-4.8v-25.7h4.8v10.7h4.8l7.1-10.7h5.3l-8.6,12.9l10.1,12.8L1334.3,1160.4
		L1334.3,1160.4z"/>
	<path class="st3" d="M1362.4,1134.7h5.2l-15.9,38.2h-5.1l5.4-13.3l-10.3-24.9h5.2l7.8,18.9L1362.4,1134.7z"/>
	<path class="st3" d="M1370,1147.5c0-8.1,6.4-13.5,13.8-13.5c4,0,7.5,1.6,9.8,4.1l-3,3.1c-1.6-1.6-3.9-2.7-6.6-2.7
		c-5.1,0-9.1,3.7-9.1,9s4.1,9,9.1,9c2.7,0,5-1,6.6-2.7l3,3.1c-2.3,2.5-5.8,4.1-9.8,4.1C1376.4,1161.1,1370,1155.7,1370,1147.5z"/>
	<path class="st3" d="M1397.1,1147.5c0-8.1,6.4-13.5,13.8-13.5c4,0,7.5,1.6,9.8,4.1l-3,3.1c-1.6-1.6-3.9-2.7-6.6-2.7
		c-5.1,0-9.1,3.7-9.1,9s4.1,9,9.1,9c2.7,0,5-1,6.6-2.7l3,3.1c-2.3,2.5-5.8,4.1-9.8,4.1C1403.6,1161.1,1397.1,1155.7,1397.1,1147.5z"
		/>
	<path class="st3" d="M1445.6,1134.7v4.5h-8.5v21.2h-4.8v-21.2h-8.5v-4.5H1445.6z"/>
	<path class="st3" d="M1474.3,1153.1c0,3.5-2.6,7.3-8.4,7.3h-15v-25.7h14.1c4.7,0,7.8,2.8,7.8,6.6c0,1.9-0.5,4.5-3.1,5.4
		C1473,1147.4,1474.3,1150.3,1474.3,1153.1z M1464.8,1139.2h-9.1v5.9h9.2c2,0,3.1-1,3.1-2.9
		C1468.1,1140.4,1467,1139.2,1464.8,1139.2z M1465.4,1155.9c2.8,0,4.1-1.5,4.1-3.3c0-1.9-1.3-3.5-4.1-3.5h-9.7v6.8H1465.4z"/>
	<path class="st3" d="M1505.1,1149.6h-20.9c0.7,4.6,4,6.9,8.4,6.9c3.1,0,6-1.4,7.5-4l4.1,1.7c-2.2,4.5-6.8,6.9-11.8,6.9
		c-7.3,0-13.2-5.4-13.2-13.6c0-8.1,5.9-13.4,13.2-13.4c7.3,0,12.8,5.3,12.8,13.4C1505.3,1148.2,1505.2,1148.9,1505.1,1149.6z
		 M1500.5,1145.5c-0.6-4.4-3.7-6.9-8-6.9s-7.4,2.3-8.2,6.9H1500.5z"/>
	<path class="st3" d="M1530.6,1134.7h4.8v25.7h-4.8v-10.7h-14v10.7h-4.8v-25.7h4.8v10.7h14V1134.7z"/>
	<path class="st3" d="M1562.6,1134.7h4.8v25.7h-4.8v-10.7h-14v10.7h-4.8v-25.7h4.8v10.7h14V1134.7z"/>
	<path class="st3" d="M1574,1147.5c0-8.1,6.1-13.5,13.4-13.5s13.5,5.3,13.5,13.5s-6.2,13.5-13.5,13.5
		C1580.1,1161.1,1574,1155.7,1574,1147.5z M1596.1,1147.5c0-5.3-4-9-8.7-9s-8.6,3.7-8.6,9s3.9,9,8.6,9S1596.1,1152.9,1596.1,1147.5z
		"/>
	<path class="st3" d="M1624.2,1134.7v4.5h-11.9v21.2h-4.8v-25.7H1624.2z"/>
	<path class="st3" d="M1627.1,1147.5c0-8.1,6.1-13.5,13.4-13.5s13.5,5.3,13.5,13.5s-6.2,13.5-13.5,13.5
		C1633.2,1161.1,1627.1,1155.7,1627.1,1147.5z M1649.2,1147.5c0-5.3-4-9-8.7-9s-8.6,3.7-8.6,9s3.9,9,8.6,9
		S1649.2,1152.9,1649.2,1147.5z"/>
	<path class="st3" d="M1694.2,1134.7h4.3v25.7h-4.8v-18.6l-15.1,18.6h-4.1v-25.7h4.8v18.5L1694.2,1134.7z"/>
	<path class="st3" d="M1725.7,1134.7h4.8v25.7h-4.8v-10.7h-14v10.7h-4.8v-25.7h4.8v10.7h14V1134.7z"/>
	<path class="st3" d="M1757.6,1134.7v4.5h-8.5v21.2h-4.8v-21.2h-8.5v-4.5H1757.6z"/>
	<path class="st3" d="M1786.4,1149.6h-20.9c0.7,4.6,4,6.9,8.4,6.9c3.1,0,6-1.4,7.5-4l4.1,1.7c-2.2,4.5-6.8,6.9-11.8,6.9
		c-7.3,0-13.2-5.4-13.2-13.6c0-8.1,5.9-13.4,13.2-13.4c7.3,0,12.8,5.3,12.8,13.4C1786.5,1148.2,1786.5,1148.9,1786.4,1149.6z
		 M1781.7,1145.5c-0.6-4.4-3.7-6.9-8-6.9s-7.4,2.3-8.2,6.9H1781.7z"/>
	<path class="st3" d="M1797.4,1134.7h16.8v25.7h-4.8v-21.2h-7.5l-1.4,11c-0.9,6.7-3.4,10.2-8.3,10.2h-2.6v-4.2h1.5
		c2.8,0,4-1.3,4.6-6L1797.4,1134.7z"/>
	<path class="st3" d="M1827.4,1134.7h16.8v25.7h-4.8v-21.2h-7.5l-1.4,11c-0.9,6.7-3.4,10.2-8.3,10.2h-2.6v-4.2h1.5
		c2.8,0,4-1.3,4.6-6L1827.4,1134.7z"/>
	<path class="st3" d="M1876.7,1149.6h-20.9c0.7,4.6,4,6.9,8.4,6.9c3.1,0,6-1.4,7.5-4l4.1,1.7c-2.2,4.5-6.8,6.9-11.8,6.9
		c-7.3,0-13.2-5.4-13.2-13.6c0-8.1,5.9-13.4,13.2-13.4c7.3,0,12.8,5.3,12.8,13.4C1876.8,1148.2,1876.7,1148.9,1876.7,1149.6z
		 M1872,1145.5c-0.6-4.4-3.7-6.9-8-6.9s-7.4,2.3-8.2,6.9H1872z"/>
	<path class="st3" d="M1901,1160.4l-8.5-10.7h-4.5v10.7h-4.8v-25.7h4.8v10.7h4.8l7.1-10.7h5.3l-8.6,12.9l10.1,12.8L1901,1160.4
		L1901,1160.4z"/>
	<path class="st3" d="M1930.4,1134.7v4.5h-8.5v21.2h-4.8v-21.2h-8.5v-4.5H1930.4z"/>
	<path class="st3" d="M1955.3,1134.7h4.8v25.7h-4.8v-4.6c-1.7,3.1-5.3,5.2-9.4,5.2c-6.7,0-12.6-5.7-12.6-13.5
		c0-7.6,5.6-13.5,12.8-13.5c3.8,0,7.5,1.7,9.2,4.7V1134.7z M1955.3,1147.5c0-5.3-4.5-9-8.7-9c-4.7,0-8.4,4.1-8.4,9s3.7,9,8.5,9
		C1951.1,1156.5,1955.3,1152.7,1955.3,1147.5z"/>
</g>
</svg>
